<?xml version="1.0" encoding="iso-8859-1"?>
<!-- Uploaded to: SVG Repo, www.svgrepo.com, Generator: SVG Repo Mixer Tools -->
<svg fill="#888888" version="1.1" id="Capa_1" xmlns="http://www.w3.org/2000/svg" xmlns:xlink="http://www.w3.org/1999/xlink" 
	 viewBox="0 0 434.407 434.407" xml:space="preserve">
<g>
	<path d="M339.204,200.951c-4.623,0-9.071,0.76-13.228,2.161c-5.117-17.12-21.011-29.635-39.772-29.635
		c-4.887,0-9.576,0.855-13.934,2.414c-5.755-16.018-21.092-27.507-39.066-27.507c-3.99,0-7.845,0.578-11.5,1.633V126.5
		c0-22.883-18.617-41.5-41.5-41.5s-41.5,18.617-41.5,41.5v87.36c-3.655-1.056-7.51-1.633-11.5-1.633
		c-22.883,0-41.5,18.617-41.5,41.5v77.851c0,56.7,46.129,102.829,102.829,102.829h89.343c56.699,0,102.828-46.129,102.828-102.829
		v-89.126C380.704,219.568,362.087,200.951,339.204,200.951z M350.704,331.578c0,40.158-32.671,72.829-72.828,72.829h-89.343
		c-40.158,0-72.829-32.671-72.829-72.829v-77.851c0-6.341,5.159-11.5,11.5-11.5c6.341,0,11.5,5.159,11.5,11.5v60.571h30V126.5
		c0-6.341,5.159-11.5,11.5-11.5s11.5,5.159,11.5,11.5v63.384v44.022v8.545h30v-8.545v-44.022c0-6.341,5.159-11.5,11.5-11.5
		s11.5,5.159,11.5,11.5v52.567h30v-27.474c0-6.341,5.159-11.5,11.5-11.5s11.5,5.159,11.5,11.5v27.474h30
		c0-6.341,5.159-11.5,11.5-11.5s11.5,5.159,11.5,11.5V331.578z"/>
	<rect x="53.704" y="111.5" width="50" height="30"/>
	<rect x="165.204" width="30" height="50"/>
	<path d="M101.359,26.445l35.354,35.354L115.5,83.012L80.146,47.658L101.359,26.445z"/>
</g>
</svg>